<?xml version="1.0" encoding="UTF-8"?>
<svg id="Layer_2" data-name="Layer 2" xmlns="http://www.w3.org/2000/svg" xmlns:xlink="http://www.w3.org/1999/xlink" viewBox="0 0 258.44 258.44">
  <defs>
    <style>
      .cls-1 {
        fill: url(#linear-gradient);
      }

      .cls-2 {
        fill: #fff;
      }
    </style>
    <linearGradient id="linear-gradient" x1="19.12" y1="130.44" x2="499.98" y2="125.1" gradientUnits="userSpaceOnUse">
      <stop offset="0" stop-color="#d00000"/>
      <stop offset="1" stop-color="#ffbf00"/>
    </linearGradient>
  </defs>
  <g id="Layer_1-2" data-name="Layer 1">
    <rect class="cls-1" width="258.44" height="258.44" rx="67.62" ry="67.62"/>
    <g>
      <path class="cls-2" d="M208,109.44c0-5.75.5-11.77,0-17.57v-.83c0-1.09-.18-2.06-.49-2.93-2.7-13.99-18.21-21.96-31.22-15.99-6.26,2.87-10.95,8.64-12.45,15.37-.92,4.11-.32,8.24-.55,12.4-.45,8.12-11.22,8.29-11.72.11-.97-15.78,5.32-38.72-11.83-47.94-12.77-6.87-29.2.71-32.34,14.84-1.57,7.03.02,14.49-.55,21.6-.27,3.32-2.72,6.28-6.35,5.97-4.26-.37-5.39-4.17-5.37-7.73.02-4.47.35-9.21-.86-13.56-1.92-6.94-7.42-12.5-14.12-14.92-13.92-5.03-28.51,5.35-29.68,19.72-.56,6.85-.06,13.89-.06,20.76v25.85c0,22.16,4.26,43.4,16.39,62.32,7.54,11.76,17.32,21.8,28.75,29.81,7,4.91,14.77,8.67,22.31,12.67,2.39,1.27,4.79,2.54,7.18,3.82,9.37,4.98,17.72-9.26,8.33-14.25-14.47-7.69-29.41-14.58-41.09-26.4-16.4-16.6-25.26-39.03-25.37-62.27-.11-23.44,0,3.11,0-20.34v-17.06c0-4.81-2.16-15.82,3.1-18.7,3.08-1.69,7.09-.18,8.29,3.17,1.06,2.95.29,7.07.33,10.14.17,12.53,9.25,23.45,22.36,23.45s22.04-10.63,22.36-22.98c.09-3.54,0-7.09,0-10.64,0-2.33-.53-5.53.39-7.75,1.44-3.5,5.96-4.8,8.97-2.51,2.18,1.66,2.38,3.99,2.36,6.48-.06,7.64,0,15.28,0,22.92,0,9.9,2.85,19.14,12.41,23.9,12.28,6.11,27.64-.6,31.45-13.83,1.54-5.35-2.03-18.45,5.59-19.93,5.24-1.02,6.66,2.87,6.99,7.14v28.62c0,6.81.17,13.66-.77,20.42-1.79,12.98-6.61,25.42-13.76,36.37-8.14,12.47-19.42,22.37-32.47,29.44-9.34,5.06-1.02,19.31,8.33,14.25,25.7-13.92,45.01-38.34,52.06-66.79,4.36-17.61,3.12-26.17,3.12-44.15v-2.49Z"/>
      <circle class="cls-2" cx="72.77" cy="42.23" r="11.26"/>
      <circle class="cls-2" cx="129.21" cy="35.44" r="11.26"/>
      <circle class="cls-2" cx="185.64" cy="56.26" r="11.26"/>
    </g>
  </g>
</svg>