<?xml version="1.0" encoding="UTF-8"?>
<svg id="Layer_2" data-name="Layer 2" xmlns="http://www.w3.org/2000/svg" xmlns:xlink="http://www.w3.org/1999/xlink" viewBox="0 0 503.97 260.08">
  <defs>
    <style>
      .cls-1 {
        fill: url(#linear-gradient-8);
      }

      .cls-2 {
        fill: url(#linear-gradient-7);
      }

      .cls-3 {
        fill: url(#linear-gradient-5);
      }

      .cls-4 {
        fill: url(#linear-gradient-6);
      }

      .cls-5 {
        fill: url(#linear-gradient-9);
      }

      .cls-6 {
        fill: url(#linear-gradient-4);
      }

      .cls-7 {
        fill: url(#linear-gradient-3);
      }

      .cls-8 {
        fill: url(#linear-gradient-2);
      }

      .cls-9 {
        fill: url(#linear-gradient);
      }

      .cls-10 {
        fill: green;
      }
    </style>
    <linearGradient id="linear-gradient" x1="12.17" y1="140.09" x2="305.87" y2="136.83" gradientUnits="userSpaceOnUse">
      <stop offset="0" stop-color="#d00000"/>
      <stop offset="1" stop-color="#ee7800"/>
    </linearGradient>
    <linearGradient id="linear-gradient-2" x1="12.17" y1="140.48" x2="305.88" y2="137.21" xlink:href="#linear-gradient"/>
    <linearGradient id="linear-gradient-3" x1="12.19" y1="141.6" x2="305.89" y2="138.34" xlink:href="#linear-gradient"/>
    <linearGradient id="linear-gradient-4" x1="12.2" y1="142.81" x2="305.9" y2="139.54" xlink:href="#linear-gradient"/>
    <linearGradient id="linear-gradient-5" x1="12.56" y1="175.57" x2="306.27" y2="172.31" xlink:href="#linear-gradient"/>
    <linearGradient id="linear-gradient-6" x1="12.21" y1="143.45" x2="305.91" y2="140.18" xlink:href="#linear-gradient"/>
    <linearGradient id="linear-gradient-7" x1="10.81" y1="18.18" x2="304.52" y2="14.92" xlink:href="#linear-gradient"/>
    <linearGradient id="linear-gradient-8" x1="10.75" y1="12.02" x2="304.45" y2="8.76" xlink:href="#linear-gradient"/>
    <linearGradient id="linear-gradient-9" x1="10.98" y1="33.46" x2="304.69" y2="30.2" xlink:href="#linear-gradient"/>
  </defs>
  <g id="Layer_1-2" data-name="Layer 1">
    <g>
      <g>
        <path class="cls-9" d="M16.41,127.63h2.65c5.96,0,11.15-1.98,15.58-5.94,4.33-3.96,6.8-8.85,7.41-14.67.28-2.19,1.21-3.98,2.79-5.38,1.58-1.49,3.47-2.24,5.66-2.24h.21c2.47,0,4.54.93,6.22,2.79,1.49,1.63,2.24,3.52,2.24,5.66,0,.28-.02.58-.07.91-1.12,11.69-5.59,20.45-13.41,26.27,4.1,2.52,7.87,6.78,11.32,12.79,3.59,6.19,5.38,12.88,5.38,20.05v3.56c0,2.38-.84,4.36-2.52,5.94-1.68,1.68-3.66,2.52-5.94,2.52h-.21c-2.28,0-4.26-.84-5.94-2.52-1.68-1.58-2.52-3.56-2.52-5.94v-3.56c-.05-6.33-2.31-11.76-6.78-16.28-4.52-4.47-9.97-6.71-16.35-6.71h-5.73v-17.26Z"/>
        <path class="cls-8" d="M82.79,146.15c0,4.61,1.61,8.55,4.82,11.81,3.26,3.21,7.22,4.82,11.88,4.82s8.55-1.61,11.81-4.82c3.21-3.26,4.82-7.2,4.82-11.81v-38.22c0-2.33.84-4.33,2.52-6.01,1.68-1.68,3.68-2.52,6.01-2.52h.14c2.38,0,4.35.84,5.94,2.52,1.68,1.68,2.52,3.68,2.52,6.01v38.22c0,9.27-3.31,17.21-9.92,23.82s-14.56,9.92-23.82,9.92-17.28-3.31-23.89-9.92c-6.61-6.61-9.92-14.56-9.92-23.82v-38.22c0-2.33.84-4.33,2.52-6.01s3.66-2.52,5.94-2.52h.21c2.28,0,4.26.84,5.94,2.52,1.68,1.68,2.52,3.68,2.52,6.01v38.22Z"/>
        <path class="cls-7" d="M184.11,146.15c0,4.61,1.61,8.55,4.82,11.81,3.26,3.21,7.22,4.82,11.88,4.82s8.55-1.61,11.81-4.82c3.21-3.26,4.82-7.2,4.82-11.81v-38.22c0-2.33.84-4.33,2.52-6.01,1.68-1.68,3.68-2.52,6.01-2.52h.14c2.38,0,4.35.84,5.94,2.52,1.68,1.68,2.52,3.68,2.52,6.01v38.22c0,9.27-3.31,17.21-9.92,23.82s-14.56,9.92-23.82,9.92-17.28-3.31-23.89-9.92c-6.61-6.61-9.92-14.56-9.92-23.82v-38.22c0-2.33.84-4.33,2.52-6.01s3.66-2.52,5.94-2.52h.21c2.28,0,4.26.84,5.94,2.52,1.68,1.68,2.52,3.68,2.52,6.01v38.22Z"/>
        <path class="cls-6" d="M308.99,111.21c7.87,7.87,11.81,17.35,11.81,28.44v31.79c0,2.38-.84,4.36-2.52,5.94-1.68,1.68-3.66,2.52-5.94,2.52h-.21c-2.28,0-4.26-.84-5.94-2.52-1.68-1.58-2.52-3.56-2.52-5.94-5.31,5.64-13.02,8.45-23.13,8.45-11.09,0-20.56-3.94-28.44-11.81-7.87-7.87-11.81-17.35-11.81-28.44s3.94-20.56,11.81-28.44c7.87-7.87,17.35-11.81,28.44-11.81s20.56,3.94,28.44,11.81ZM264.14,123.3c-4.47,4.52-6.71,9.97-6.71,16.35s2.24,11.9,6.71,16.42c4.52,4.47,9.99,6.71,16.42,6.71s11.88-2.24,16.35-6.71c4.52-4.52,6.78-9.99,6.78-16.42s-2.26-11.83-6.78-16.35c-4.52-4.52-9.97-6.78-16.35-6.78s-11.9,2.26-16.42,6.78Z"/>
      </g>
      <path class="cls-3" d="M102.62,248.69c25.7-13.92,45.01-38.34,52.06-66.79,4.36-17.61,3.12-36.17,3.12-54.15v-20.88c0-10.62-16.5-10.63-16.5,0v41.34c0,6.81.17,13.66-.77,20.42-1.79,12.98-6.61,25.42-13.76,36.37-8.14,12.47-19.42,22.37-32.47,29.44-9.34,5.06-1.02,19.31,8.33,14.25h0Z"/>
      <path class="cls-4" d="M157.79,85.26c0-6.76.71-13.92-.36-20.62-2.3-14.42-18.13-22.76-31.36-16.69-6.26,2.87-10.95,8.64-12.45,15.37-.92,4.11-.32,8.24-.55,12.4-.45,8.12-11.22,8.29-11.72.11-.97-15.78,5.32-38.72-11.83-47.94-12.77-6.87-29.2.71-32.34,14.84-1.57,7.03.02,14.49-.55,21.6-.27,3.32-2.72,6.28-6.35,5.97-4.26-.37-5.39-4.17-5.37-7.73.02-4.47.35-9.21-.86-13.56-1.92-6.94-7.42-12.5-14.12-14.92C16.03,29.05,1.43,39.44.27,53.81c-.56,6.85-.06,13.89-.06,20.76,0,25.28,0,50.57,0,75.85,0,22.16,4.26,43.4,16.39,62.32,7.54,11.76,17.32,21.8,28.75,29.81,7,4.91,14.77,8.67,22.31,12.67,2.39,1.27,4.79,2.54,7.18,3.82,9.37,4.98,17.72-9.26,8.33-14.25-14.47-7.69-29.41-14.58-41.09-26.4-16.39-16.6-25.26-39.03-25.37-62.27s0-46.89,0-70.34c0-5.69,0-11.37,0-17.06,0-4.81-2.16-15.82,3.1-18.7,3.08-1.69,7.09-.18,8.29,3.17,1.06,2.95.29,7.07.33,10.14.17,12.53,9.25,23.45,22.36,23.45,12.85,0,22.04-10.63,22.36-22.98.09-3.54,0-7.09,0-10.64,0-2.33-.53-5.53.39-7.75,1.44-3.5,5.96-4.8,8.97-2.51,2.18,1.66,2.38,3.99,2.36,6.48-.06,7.64,0,15.28,0,22.92,0,9.9,2.85,19.14,12.41,23.9,12.28,6.11,27.64-.6,31.45-13.83,1.54-5.35-2.03-18.45,5.59-19.93,8.39-1.63,6.99,9.35,6.99,14.28,0,2.84,0,5.69,0,8.53,0,10.62,16.5,10.63,16.5,0h0Z"/>
      <circle class="cls-2" cx="22.56" cy="18.05" r="11.26"/>
      <circle class="cls-1" cx="79" cy="11.26" r="11.26"/>
      <circle class="cls-5" cx="135.43" cy="32.08" r="11.26"/>
      <g>
        <path class="cls-10" d="M327.67,159.02l-.05-.59h7.03l.05.48c1.01,8.31,8.36,14.27,19.54,14.27s18.85-6.5,18.85-15.6v-.11c0-10.06-7.51-15.82-19.76-15.82h-9.21v-6.23h8.95c10.22,0,17.36-6.07,17.36-14.54v-.11c0-8.63-6.39-14.11-16.51-14.11s-16.77,5.59-17.57,13.74l-.05.53h-7.03l.05-.53c1.12-11.82,10.65-20.13,24.6-20.13s23.8,8.2,23.8,19.65v.11c0,9.48-6.55,16.14-16.35,18.11v.21c11.45.91,19.12,8.04,19.12,18.96v.11c0,12.73-11.13,22.15-26.25,22.15s-25.35-8.73-26.57-20.56Z"/>
        <path class="cls-10" d="M387.7,142.08v-.11c0-26.41,10.92-42.07,29.02-42.07,12.78,0,22.1,7.72,24.44,18.64l.16.69h-7.35l-.16-.59c-2.13-7.3-8.47-12.19-17.2-12.19-14.96,0-21.51,15.02-21.94,33.28v2.29h.75c2.72-7.72,10.97-14.11,21.89-14.11,14.48,0,25.3,10.97,25.3,25.61v.11c0,15.12-11.24,26.31-26.41,26.31s-28.49-10.86-28.49-37.86ZM416.09,173.45c10.76,0,19.22-8.63,19.22-19.65v-.11c0-11.13-8.15-19.38-19.12-19.38s-19.49,8.25-19.49,18.8v.05c0,11.24,8.31,20.29,19.38,20.29Z"/>
        <path class="cls-10" d="M449.86,140.01v-.16c0-24.55,10.12-39.94,27-39.94s27.11,15.39,27.11,39.94v.16c0,24.55-10.22,39.94-27.11,39.94s-27-15.44-27-39.94ZM496.67,140.01v-.16c0-20.66-7.4-33.5-19.81-33.5s-19.7,12.89-19.7,33.5v.16c0,20.61,7.35,33.55,19.7,33.55s19.81-12.94,19.81-33.55Z"/>
      </g>
    </g>
  </g>
</svg>